<?xml version="1.0" encoding="UTF-8" standalone="no"?>
<!DOCTYPE svg PUBLIC "-//W3C//DTD SVG 1.1 Tiny//EN"	"http://www.w3.org/Graphics/SVG/1.1/DTD/svg11-tiny.dtd">
<svg width="210mm" height="297mm" viewBox="-25 -25 210 297" version="1.1"
	xmlns="http://www.w3.org/2000/svg" xmlns:xlink="http://www.w3.org/1999/xlink">
	<title>Lineatur kariert 5mm</title>
	<desc>A4-Blatt kariert, 5mm x 5mm, Lineatur 22</desc>
	<defs>
		<g id="line">
			<line x1="0" y1="0" x2="160" y2="0" stroke="#000" stroke-width="0.01mm" />
		</g>
		<g id="row">
			<line x1="0" y1="0" x2="0" y2="245" stroke="#000" stroke-width="0.01mm" />
		</g>
	</defs>
	
	<use y="0" xlink:href="#line" />
	<use y="5" xlink:href="#line" />
	<use y="10" xlink:href="#line" />
	<use y="15" xlink:href="#line" />
	<use y="20" xlink:href="#line" />
	<use y="25" xlink:href="#line" />
	<use y="30" xlink:href="#line" />
	<use y="35" xlink:href="#line" />
	<use y="40" xlink:href="#line" />
	<use y="45" xlink:href="#line" />
	<use y="50" xlink:href="#line" />
	<use y="55" xlink:href="#line" />
	<use y="60" xlink:href="#line" />
	<use y="65" xlink:href="#line" />
	<use y="70" xlink:href="#line" />
	<use y="75" xlink:href="#line" />
	<use y="80" xlink:href="#line" />
	<use y="85" xlink:href="#line" />
	<use y="90" xlink:href="#line" />
	<use y="95" xlink:href="#line" />
	<use y="100" xlink:href="#line" />
	<use y="105" xlink:href="#line" />
	<use y="110" xlink:href="#line" />
	<use y="115" xlink:href="#line" />
	<use y="120" xlink:href="#line" />
	<use y="125" xlink:href="#line" />
	<use y="130" xlink:href="#line" />
	<use y="135" xlink:href="#line" />
	<use y="140" xlink:href="#line" />
	<use y="145" xlink:href="#line" />
	<use y="150" xlink:href="#line" />
	<use y="155" xlink:href="#line" />
	<use y="160" xlink:href="#line" />
	<use y="165" xlink:href="#line" />
	<use y="170" xlink:href="#line" />
	<use y="175" xlink:href="#line" />
	<use y="180" xlink:href="#line" />
	<use y="185" xlink:href="#line" />
	<use y="190" xlink:href="#line" />
	<use y="195" xlink:href="#line" />
	<use y="200" xlink:href="#line" />
	<use y="205" xlink:href="#line" />
	<use y="210" xlink:href="#line" />
	<use y="215" xlink:href="#line" />
	<use y="220" xlink:href="#line" />
	<use y="225" xlink:href="#line" />
	<use y="230" xlink:href="#line" />
	<use y="235" xlink:href="#line" />
	<use y="240" xlink:href="#line" />
	<use y="245" xlink:href="#line" />

	<use x="0" xlink:href="#row" />
	<use x="5" xlink:href="#row" />
	<use x="10" xlink:href="#row" />
	<use x="15" xlink:href="#row" />
	<use x="20" xlink:href="#row" />
	<use x="25" xlink:href="#row" />
	<use x="30" xlink:href="#row" />
	<use x="35" xlink:href="#row" />
	<use x="40" xlink:href="#row" />
	<use x="45" xlink:href="#row" />
	<use x="50" xlink:href="#row" />
	<use x="55" xlink:href="#row" />
	<use x="60" xlink:href="#row" />
	<use x="65" xlink:href="#row" />
	<use x="70" xlink:href="#row" />
	<use x="75" xlink:href="#row" />
	<use x="80" xlink:href="#row" />
	<use x="85" xlink:href="#row" />
	<use x="90" xlink:href="#row" />
	<use x="95" xlink:href="#row" />
	<use x="100" xlink:href="#row" />
	<use x="105" xlink:href="#row" />
	<use x="110" xlink:href="#row" />
	<use x="115" xlink:href="#row" />
	<use x="120" xlink:href="#row" />
	<use x="125" xlink:href="#row" />	
	<use x="130" xlink:href="#row" />
	<use x="135" xlink:href="#row" />
	<use x="140" xlink:href="#row" />
	<use x="145" xlink:href="#row" />
	<use x="150" xlink:href="#row" />
	<use x="155" xlink:href="#row" />
	<use x="160" xlink:href="#row" />
</svg>
